<svg width="15" height="15" viewBox="0 0 15 15" fill="none" xmlns="http://www.w3.org/2000/svg">
<path d="M6.05096 0C2.84306 0 0.242027 2.60105 0.242027 5.80893C0.242027 9.01683 2.84306 11.6179 6.05096 11.6179C7.28451 11.6179 8.42853 11.2331 9.36888 10.5777L13.7618 14.9699C13.8014 15.0096 13.8657 15.0096 13.9033 14.9727L14.7309 14.1451C14.7691 14.1068 14.7657 14.0412 14.7282 14.0036L10.3926 9.66807C11.3056 8.64231 11.8599 7.29052 11.8599 5.8089C11.8599 2.60105 9.25887 0 6.05096 0ZM6.05096 10.9345C3.22031 10.9345 0.925426 8.63958 0.925426 5.80893C0.925426 2.97828 3.22029 0.683421 6.05096 0.683421C8.88164 0.683421 11.1765 2.97828 11.1765 5.80893C11.1765 8.63958 8.88162 10.9345 6.05096 10.9345Z" fill="white"/>
</svg>
